<?xml version="1.0" encoding="iso-8859-1"?>
<!-- Uploaded to: SVG Repo, www.svgrepo.com, Generator: SVG Repo Mixer Tools -->
<svg fill="#000000" height="800px" width="800px" version="1.1" id="Layer_1" xmlns="http://www.w3.org/2000/svg" xmlns:xlink="http://www.w3.org/1999/xlink" 
	 viewBox="0 0 295.117 295.117" xml:space="preserve">
<g>
	<g>
		<g>
			<path d="M253.615,49.321l-3.056-3.008h-26.776c-5.28-15.524-16.268-28.728-31.06-37.224c-14.616-8.388-31.076-10.776-46.58-7.964
				c-5.476,0.188-10.972,0.952-16.404,2.468c-18.012,5.016-33.096,16.772-42.472,33.104c-1.784,3.108-3.316,6.324-4.604,9.616h-38.1
				l-3.06,3.008l-4.232,242.68l3.056,3.116h214.46l3.06-3.116L253.615,49.321z M190.595,12.809
				c13.444,7.716,23.496,19.572,28.616,33.504h-5.856c-5.352-14.888-15.932-27.696-30.676-36.164
				c-2.324-1.332-4.716-2.48-7.144-3.524C180.687,8.033,185.755,10.029,190.595,12.809z M146.639,5.393
				c11.792-0.348,23.452,2.468,33.904,8.472c13.348,7.66,23.052,19.116,28.228,32.448h-68.536
				c-1.996-7.032-8.124-12.04-15.44-12.472c-0.128-0.028-0.248-0.084-0.384-0.088c-0.188-0.004-0.364,0.036-0.552,0.036
				c-0.204-0.004-0.404-0.044-0.608-0.036c-0.156,0.004-0.292,0.068-0.436,0.1c-7.252,0.5-13.392,5.452-15.388,12.46H96.991
				c1.172-2.924,2.476-5.8,4.048-8.54C111.191,20.097,128.183,8.821,146.639,5.393z M135.747,46.313h-23.824
				c1.892-4.876,6.516-8.288,11.8-8.256C128.991,38.069,133.815,41.397,135.747,46.313z M127.491,113.009v56.976H92.683v-56.992
				l16.82-19.008C109.739,94.077,127.491,113.009,127.491,113.009z M90.987,38.833c6.664-11.608,16.4-20.744,28.068-26.552
				c-8.64,5.868-16.168,13.684-21.728,23.36c-1.956,3.408-3.54,7.008-4.908,10.672h-5.096
				C88.395,43.765,89.595,41.257,90.987,38.833z M43.447,288.993l4.124-236.556h33.048c-2.192,7.56-3.124,15.44-2.712,23.368h-3.236
				c-1.184,0-2.144,0.96-2.144,2.144c0,1.184,0.96,2.14,2.144,2.14h23.28c1.184,0,2.14-0.956,2.14-2.14
				c0-1.184-0.96-2.144-2.14-2.144h-15.76c-0.44-7.944,0.532-15.836,2.868-23.368h22.04v37.712l-18.164,20.62
				c-0.344,0.392-0.536,0.892-0.536,1.416v59.94c0,1.184,0.96,2.14,2.14,2.14h39.092c1.184,0,2.144-0.956,2.144-2.14v-59.94
				c0-0.532-0.2-1.044-0.556-1.44l-19.808-21.892c-0.008-0.008-0.024-0.012-0.028-0.024V52.437h99.412
				c1.984,7.26,2.66,14.964,1.924,22.84h-13.008c-1.184,0-2.14,0.956-2.14,2.14c0,1.188,0.96,2.144,2.14,2.144h23.28
				c1.184,0,2.144-0.956,2.144-2.144c0-1.184-0.96-2.14-2.144-2.14h-5.976c0.692-7.856,0.1-15.552-1.752-22.84h32.292l4.124,236.556
				H43.447z"/>
			<path d="M110.083,110.157c2.764,0,5.008-2.244,5.008-5.008s-2.244-5.008-5.008-5.008c-2.76,0-5.008,2.244-5.008,5.008
				S107.319,110.157,110.083,110.157z M110.083,104.421c0.4,0,0.724,0.324,0.724,0.724c0,0.8-1.448,0.8-1.448,0
				C109.359,104.749,109.683,104.421,110.083,104.421z"/>
			<path d="M150.983,255.585c-1.184,0-2.144,0.96-2.144,2.136c-0.004,1.18,0.952,2.14,2.136,2.144l12.14,0.024h0.004
				c1.18,0,2.14-0.956,2.144-2.136c0.004-1.184-0.956-2.144-2.136-2.148L150.983,255.585z"/>
			<path d="M69.523,255.429v0.004c-1.18,0-2.14,0.96-2.144,2.136c-0.004,1.184,0.956,2.14,2.136,2.144l12.14,0.02h0.004
				c1.184,0,2.144-0.956,2.144-2.136c0.004-1.184-0.956-2.144-2.136-2.148l-12.14-0.02H69.523z"/>
			<path d="M110.247,259.793l12.14,0.024h0.004c1.184,0,2.144-0.956,2.144-2.136c0.004-1.18-0.952-2.14-2.136-2.144l-12.14-0.024
				h-0.004c-1.18,0-2.14,0.956-2.144,2.136C108.107,258.829,109.063,259.789,110.247,259.793z"/>
			<path d="M171.347,255.629h-0.004c-1.18,0-2.14,0.96-2.14,2.136c-0.004,1.184,0.952,2.14,2.136,2.144l12.14,0.02h0.004
				c1.184,0,2.144-0.956,2.144-2.136c0.004-1.184-0.956-2.144-2.136-2.148L171.347,255.629z"/>
			<path d="M130.611,259.829l12.14,0.024h0.004c1.184,0,2.144-0.956,2.144-2.136c0.004-1.18-0.952-2.14-2.136-2.144l-12.14-0.024
				h-0.004c-1.18,0-2.14,0.956-2.144,2.136C128.471,258.865,129.427,259.825,130.611,259.829z"/>
			<path d="M89.879,259.753l12.14,0.024h0.004c1.184,0,2.144-0.956,2.144-2.136c0.004-1.18-0.952-2.14-2.136-2.144l-12.14-0.024
				h-0.004c-1.18,0-2.14,0.956-2.144,2.136C87.739,258.789,88.699,259.749,89.879,259.753z"/>
			<path d="M203.851,255.685l-12.14-0.02h-0.004c-1.184,0-2.144,0.956-2.144,2.136c-0.004,1.184,0.952,2.14,2.136,2.144l12.14,0.02
				h0.004c1.18,0,2.14-0.956,2.144-2.136C205.991,256.645,205.031,255.693,203.851,255.685z"/>
			<path d="M224.211,260.013v-0.004c1.18,0,2.14-0.96,2.144-2.136c0.004-1.184-0.956-2.14-2.136-2.144l-12.136-0.02h-0.004
				c-1.18,0-2.14,0.956-2.144,2.136c-0.004,1.184,0.956,2.144,2.136,2.148l12.136,0.02H224.211z"/>
			<path d="M236.003,70.161c-1.184,0.02-2.124,0.996-2.104,2.18l3.22,183.408l-4.68-0.008h-0.004c-1.184,0-2.14,0.96-2.144,2.136
				c-0.004,1.184,0.952,2.144,2.136,2.148l4.764,0.008l0.228,12.948h-22.364c-1.184,0-2.144,0.96-2.144,2.144s0.96,2.14,2.144,2.14
				h24.544c0.572,0,1.124-0.232,1.528-0.64c0.404-0.408,0.624-0.964,0.612-1.54l-3.56-202.82
				C238.159,71.085,237.167,70.205,236.003,70.161z"/>
			<path d="M206.259,65.601c0-1.184-0.96-2.144-2.144-2.144h-77.596c-1.184,0-2.144,0.96-2.144,2.144
				c0,1.184,0.96,2.144,2.144,2.144h77.596C205.299,67.745,206.259,66.785,206.259,65.601z"/>
			<path d="M56.123,241.109h0.024c1.172,0,2.128-0.944,2.144-2.116l1.924-171.248h14.452c1.184,0,2.14-0.96,2.14-2.144
				c0-1.184-0.96-2.14-2.14-2.14H58.095c-1.176,0-2.128,0.944-2.144,2.116l-1.948,173.368
				C53.995,240.125,54.943,241.097,56.123,241.109z"/>
			<path d="M184.719,272.985H56.623l0.232-13.292l4.44,0.008h0.004c1.184,0,2.14-0.956,2.144-2.136
				c0.004-1.184-0.956-2.144-2.136-2.148l-6.316-0.012h-0.004c-0.664,0-1.236,0.32-1.632,0.796
				c-0.444,0.396-0.732,0.972-0.744,1.608l-0.3,17.276c-0.012,0.572,0.212,1.128,0.612,1.54c0.404,0.408,0.952,0.64,1.528,0.64
				h130.276c1.184,0,2.144-0.956,2.144-2.14S185.899,272.985,184.719,272.985z"/>
		</g>
	</g>
</g>
</svg>